<?xml version="1.0" encoding="utf-8"?>
<!-- Generator: Adobe Illustrator 15.1.0, SVG Export Plug-In . SVG Version: 6.00 Build 0)  -->
<!DOCTYPE svg PUBLIC "-//W3C//DTD SVG 1.1//EN" "http://www.w3.org/Graphics/SVG/1.1/DTD/svg11.dtd">
<svg version="1.1" id="Layer_1" xmlns="http://www.w3.org/2000/svg" xmlns:xlink="http://www.w3.org/1999/xlink" x="0px" y="0px"
	 width="595.28px" height="841.89px" viewBox="0 0 595.28 841.89" enable-background="new 0 0 595.28 841.89" xml:space="preserve">
<path fill="#FFD246" d="M264.338,541.074l-11.181-54.613l-12.069,46.113l-10.25-46.5l-12.417,24.25l-22.289-19.167l-14.045,7.146
	l-48.589-0.019c0,0-11.147,1.648-11.147-5.947c0-10.738,9.806-10.119,9.806-10.119l45.261-0.538l22.753-8.606l14.583,13.75
	l14.47-33.513l12.113,41.513l13.583-55.5l8.917,57.25l9.591-63.334l12.334,61.667l7.824-63.25l12.25,64.667l10.139-66.929
	l11.773,64.929l12.504-62l7.295,63.898l10.705-56.898l5.975,53.63l6.693-48.63l11.166,49l5-33.038l20.25,20.538l15.916-12.5
	c0,0,25.834,18.279,39.334,11.75c5.75-3.875,10.375-6.75,25.375-6.875c7.865,0.046,13.5-0.375,17.057,2.988
	c3,3,2.484,8.167,2.332,14.25c-10.166,0-21.459,0-21.459,0v2.666c0,0,0,0,21.631,0c0,6.971-0.695,7.115-2.727,8.971
	c-2.75,1.916-6.977,1.249-11.486,1.321c-5.607,0.091-12.908-0.201-23.125-0.063c-8.098-0.384-16.482-0.521-27.598-6.342
	c-8-4.792-17.332-11.47-17.332-11.47l-21.668,13.553l-10.768-13.48l-9.982,34.98l-10.643-32.69l-7.967,47.94l-7.865-49.544
	l-8.775,55.544l-9.055-58.568l-10.783,62.318l-10.604-61.51l-10.059,64.26l-10.276-64.465l-11.973,61.465l-10.25-59.25
	L264.338,541.074z"/>
<path fill="none" d="M499.934,481.978"/>
<ellipse fill="#FFFFFF" cx="497.159" cy="481.977" rx="3.958" ry="4.126"/>
<path fill="#FFFFFF" stroke="#FFFFFF" stroke-width="8" d="M106.298,490.266"/>
<g>
	<defs>
		<polygon id="SVGID_1_" points="546.088,567.324 74.612,567.324 48.988,490.266 520.465,490.266 		"/>
	</defs>
	<clipPath id="SVGID_2_">
		<use xlink:href="#SVGID_1_"  overflow="visible"/>
	</clipPath>
	<path clip-path="url(#SVGID_2_)" fill="#0075A5" d="M264.362,541.074l-11.181-54.613l-12.069,46.113l-10.25-46.5l-12.417,24.25
		l-22.289-19.167l-14.045,7.146l-48.589-0.019c0,0-11.147,1.648-11.147-5.947c0-10.738,9.806-10.119,9.806-10.119l45.261-0.538
		l22.753-8.606l14.583,13.75l14.47-33.513l12.113,41.513l13.583-55.5l8.917,57.25l9.591-63.334l12.334,61.667l7.824-63.25
		l12.25,64.667L316,429.395l11.773,64.929l12.505-62l7.294,63.898l10.705-56.898l5.975,53.63l6.693-48.63l11.166,49l5-33.038
		l20.25,20.538l15.916-12.5c0,0,25.834,18.279,39.334,11.75c5.75-3.875,10.375-6.75,25.375-6.875
		c7.865,0.046,13.5-0.375,17.057,2.988c3,3,1.197,5.554,1.045,11.637c-10.166,0-20.125-0.5-20.125-0.5l-0.047,5.779
		c0,0,0,0,21.631,0c0,6.971-0.695,7.115-2.727,8.971c-2.75,1.916-6.977,1.249-11.486,1.321c-5.607,0.091-12.908-0.201-23.125-0.063
		c-8.098-0.384-16.482-0.521-27.598-6.342c-8-4.792-17.332-11.47-17.332-11.47l-21.668,13.553l-10.768-13.48l-9.982,34.98
		l-10.643-32.69l-7.967,47.94l-7.865-49.544l-8.774,55.544l-9.056-58.568l-10.783,62.318l-10.604-61.51l-10.058,64.26
		l-10.277-64.465l-11.973,61.465l-10.25-59.25L264.362,541.074z"/>
</g>
<line fill="#FFFFFF" stroke="#FFFFFF" stroke-width="2" x1="100.964" y1="490.766" x2="555.254" y2="490.824"/>
<text transform="matrix(1 0 0 1 151.5977 613.4702)" font-family="'TrajanPro-Regular'" font-size="72">Spyndle</text>
</svg>
